# xmcd
#
# Track frame offsets:
#	150
#	21629
#	49167
#	61198
#	78872
#	106283
#	126986
#	144871
#	162039
#	183517
#	199887
#	214688
#
# Disc length: 3504 seconds
#
# Revision: 1
# Processed by: cddbd v1.5.2PL0 Copyright (c) Steve Scherf et al.
# Submitted via: audiograbber 1.83.01
#
DISCID=a50dae0c
DTITLE=Matyas Pribojszki Band - My Stories
DYEAR=2016
DGENRE=Blues
TTITLE0=Mamphis Soul
TTITLE1=Come On Baby
TTITLE2=Fat Mama Boogie
TTITLE3=Can't Make You Stay
TTITLE4=Soul Stealin' Mama
TTITLE5=Bad Weather Blues Again
TTITLE6=My Story
TTITLE7=Banging On Your Door
TTITLE8=Traveling Mood
TTITLE9=Balaton Boogie
TTITLE10=Full Time Baby
TTITLE11=Blues For My Daddy
EXTD=
EXTT0=
EXTT1=
EXTT2=
EXTT3=
EXTT4=
EXTT5=
EXTT6=
EXTT7=
EXTT8=
EXTT9=
EXTT10=
EXTT11=
PLAYORDER=
